<svg width="61" height="16" viewBox="0 0 61 16" fill="none" xmlns="http://www.w3.org/2000/svg">
<path d="M4.992 15.9893C3.61956 15.9893 2.49244 15.6907 1.61067 15.0933C0.736 14.4889 0.199111 13.6462 0 12.5653L1.94133 12.256C2.09778 12.8818 2.45689 13.3796 3.01867 13.7493C3.58044 14.112 4.27733 14.2933 5.10933 14.2933C5.89867 14.2933 6.51733 14.1298 6.96533 13.8027C7.41333 13.4756 7.63733 13.0311 7.63733 12.4693C7.63733 12.1422 7.56267 11.8791 7.41333 11.68C7.264 11.4738 6.95467 11.2818 6.48533 11.104C6.02311 10.9262 5.32267 10.7129 4.384 10.464C3.36711 10.1938 2.56711 9.91289 1.984 9.62133C1.40089 9.32978 0.984889 8.992 0.736 8.608C0.487111 8.224 0.362667 7.75822 0.362667 7.21067C0.362667 6.53511 0.547556 5.94489 0.917333 5.44C1.28711 4.928 1.80267 4.53333 2.464 4.256C3.13244 3.97867 3.90756 3.84 4.78933 3.84C5.664 3.84 6.44622 3.97867 7.136 4.256C7.82578 4.53333 8.38044 4.928 8.8 5.44C9.22667 5.94489 9.47911 6.53511 9.55733 7.21067L7.616 7.56267C7.52356 6.944 7.22489 6.45689 6.72 6.10133C6.22222 5.74578 5.57867 5.55733 4.78933 5.536C4.04267 5.50756 3.43467 5.63911 2.96533 5.93067C2.50311 6.22222 2.272 6.61689 2.272 7.11467C2.272 7.392 2.35733 7.63022 2.528 7.82933C2.70578 8.02844 3.02933 8.21689 3.49867 8.39467C3.97511 8.57244 4.66489 8.77511 5.568 9.00267C6.58489 9.25867 7.38489 9.53956 7.968 9.84533C8.55822 10.144 8.97778 10.4996 9.22667 10.912C9.47556 11.3173 9.6 11.8187 9.6 12.416C9.6 13.5253 9.19111 14.4 8.37333 15.04C7.55556 15.6729 6.42844 15.9893 4.992 15.9893Z" fill="#242424"/>
<path d="M12.8307 15.68L12.8414 0.32H14.7614V9.70667L19.5934 4.16H22.0574L16.9694 9.92L22.6547 15.68H19.9987L14.7614 10.1333V15.68H12.8307Z" fill="#242424"/>
<path d="M24.6529 15.84L23.3729 14.56L25.2183 12.7147L25.7729 12.384L32.1089 6.06933L32.3543 5.6L33.9649 4L35.2449 5.28L33.4636 7.04L32.9943 7.296L26.7863 13.504L26.4023 14.0907L24.6529 15.84ZM29.3036 16C28.1587 16 27.1703 15.7404 26.3383 15.2213C25.5134 14.7022 24.8769 13.984 24.4289 13.0667C23.9809 12.1493 23.7569 11.0969 23.7569 9.90933C23.7569 8.70044 23.9845 7.64089 24.4396 6.73067C24.8947 5.82044 25.5383 5.11289 26.3703 4.608C27.2023 4.096 28.1801 3.84 29.3036 3.84C30.4556 3.84 31.4476 4.09956 32.2796 4.61867C33.1116 5.13067 33.7481 5.84533 34.1889 6.76267C34.6369 7.67289 34.8609 8.72178 34.8609 9.90933C34.8609 11.1111 34.6369 12.1707 34.1889 13.088C33.7409 13.9982 33.1009 14.7129 32.2689 15.232C31.4369 15.744 30.4485 16 29.3036 16ZM29.3036 14.1973C30.4983 14.1973 31.3872 13.7991 31.9703 13.0027C32.5534 12.2062 32.8449 11.1751 32.8449 9.90933C32.8449 8.608 32.5498 7.57333 31.9596 6.80533C31.3694 6.03022 30.4841 5.64267 29.3036 5.64267C28.5001 5.64267 27.8387 5.824 27.3196 6.18667C26.8005 6.54933 26.4129 7.05067 26.1569 7.69067C25.9009 8.33067 25.7729 9.07022 25.7729 9.90933C25.7729 11.2036 26.0716 12.2418 26.6689 13.024C27.2663 13.8062 28.1445 14.1973 29.3036 14.1973Z" fill="#242424"/>
<path d="M38.3117 15.68V0H40.2103V15.68H38.3117Z" fill="#242424"/>
<path d="M48.8224 16C47.7486 16 46.8277 15.7333 46.0597 15.2C45.2917 14.6596 44.6979 13.9307 44.2784 13.0133C43.8659 12.096 43.6597 11.0613 43.6597 9.90933C43.6597 8.75733 43.8659 7.72267 44.2784 6.80533C44.6979 5.888 45.2917 5.16622 46.0597 4.64C46.8277 4.10667 47.7451 3.84 48.8117 3.84C49.8997 3.84 50.8135 4.10311 51.5531 4.62933C52.2926 5.15556 52.8508 5.87733 53.2277 6.79467C53.6117 7.712 53.8037 8.75022 53.8037 9.90933C53.8037 11.0542 53.6117 12.0889 53.2277 13.0133C52.8508 13.9307 52.2926 14.6596 51.5531 15.2C50.8135 15.7333 49.9033 16 48.8224 16ZM49.0571 14.2613C49.8322 14.2613 50.4686 14.0764 50.9664 13.7067C51.4642 13.3298 51.8304 12.8142 52.0651 12.16C52.3068 11.4987 52.4277 10.7484 52.4277 9.90933C52.4277 9.056 52.3068 8.30578 52.0651 7.65867C51.8304 7.00444 51.4677 6.496 50.9771 6.13333C50.4864 5.76356 49.8642 5.57867 49.1104 5.57867C48.3282 5.57867 47.6811 5.77067 47.1691 6.15467C46.6642 6.53867 46.2873 7.05778 46.0384 7.712C45.7966 8.36622 45.6757 9.09867 45.6757 9.90933C45.6757 10.7271 45.8002 11.4667 46.0491 12.128C46.2979 12.7822 46.6713 13.3013 47.1691 13.6853C47.6739 14.0693 48.3033 14.2613 49.0571 14.2613ZM52.4277 15.68V7.2H52.2144V0.32H54.1237V15.68H52.4277Z" fill="#242424"/>
<path d="M58.3424 15.68V13.5893H60.4331V15.68H58.3424Z" fill="#242424"/>
</svg>
